<svg width="100" height="100" viewBox="0 0 100 100" fill="none" xmlns="http://www.w3.org/2000/svg">
<path fill-rule="evenodd" clip-rule="evenodd" d="M40.8224 13.2126C37.6569 13.8986 34.6766 16.7497 33.8739 19.8602C33.7544 20.3225 33.6397 20.7109 33.6187 20.7232C33.5978 20.7356 33.1118 20.9273 32.5385 21.1492C30.4846 21.9443 28.3405 23.6666 27.0926 25.5239C26.2717 26.7455 25.8217 27.7008 25.3845 29.1501C25.0432 30.2814 25 30.6602 25 32.5227C25 34.3852 25.0432 34.764 25.3845 35.8953C25.8366 37.394 26.2863 38.3369 27.1405 39.5771L27.7635 40.4815L27.1405 41.3859C26.2863 42.626 25.8366 43.5689 25.3845 45.0676C25.0432 46.1989 25 46.5777 25 48.4402C25 50.3027 25.0432 50.6816 25.3845 51.8129C25.8218 53.2628 26.2717 54.2174 27.0939 55.441C28.312 57.2538 30.526 59.0342 32.5243 59.8081C33.1054 60.0331 33.5978 60.2273 33.6187 60.2397C33.6397 60.252 33.7544 60.6404 33.8739 61.1028C34.4768 63.439 36.4441 65.8321 38.6732 66.941C40.4286 67.8143 41.3639 67.9699 44.8746 67.9729L47.8512 67.9754L47.8143 59.2047L47.7773 50.434L46.5584 50.0789C43.5781 49.2108 41.2327 47.257 40.0415 44.6504C39.2436 42.9045 39.0381 41.1687 39.5171 40.2213C39.8325 39.5972 40.7185 39.0344 41.3854 39.0344C42.5092 39.0344 43.547 40.1006 43.547 41.2549C43.547 42.861 44.8137 44.5969 46.6281 45.4775C47.1978 45.7541 47.7056 45.9802 47.7565 45.9802C47.8074 45.9802 47.849 38.8793 47.849 30.2003V14.4203L46.8052 13.9202C44.9465 13.0294 42.8253 12.7784 40.8224 13.2126ZM55.1727 13.2123C54.6658 13.3233 53.7784 13.6404 53.201 13.9171L52.151 14.4203V22.4631C52.151 28.7756 52.1896 30.5161 52.3302 30.5533C56.2319 31.5853 58.6245 33.3932 59.9623 36.3206C61.1145 38.8418 60.9764 40.9345 59.6115 41.6372C58.8627 42.0227 58.2562 42.0048 57.5311 41.576C56.8469 41.1713 56.5141 40.5227 56.3999 39.3713C56.3001 38.3643 55.77 37.3603 54.909 36.5475C54.2441 35.9201 53.2238 35.2984 52.4736 35.064L52.151 34.9631V51.4693V67.9754L55.1265 67.9729C58.6312 67.9699 59.5665 67.8147 61.3286 66.9443C63.5424 65.8508 65.5231 63.439 66.1261 61.1028C66.2456 60.6404 66.3603 60.252 66.3812 60.2397C66.4022 60.2273 66.8882 60.0356 67.4615 59.8137C70.0939 58.7946 72.4957 56.5498 73.8544 53.8387C74.0616 53.4256 74.404 52.514 74.6155 51.8129C74.9568 50.6816 75 50.3027 75 48.4402C75 46.5777 74.9568 46.1989 74.6155 45.0676C74.1634 43.5689 73.7137 42.626 72.8595 41.3859L72.2365 40.4815L72.8595 39.5771C73.7137 38.3369 74.1634 37.394 74.6155 35.8953C74.9568 34.764 75 34.3852 75 32.5227C75 30.6602 74.9568 30.2814 74.6155 29.1501C74.1783 27.7008 73.7283 26.7455 72.9074 25.5239C71.6595 23.6666 69.5154 21.9443 67.4615 21.1492C66.8882 20.9273 66.4022 20.7356 66.3812 20.7232C66.3603 20.7109 66.2456 20.3225 66.1261 19.8602C65.5231 17.5239 63.5424 15.1121 61.3286 14.0186C59.3334 13.033 57.243 12.7592 55.1727 13.2123ZM39.245 73.6654C39.245 75.3659 39.5162 76.2153 40.3168 77.0232C41.3997 78.1161 41.2975 78.1047 50 78.1047C58.7025 78.1047 58.6002 78.1161 59.6832 77.0232C60.4838 76.2153 60.755 75.3659 60.755 73.6654V72.3165H50H39.245V73.6654ZM43.1435 83.0488C43.6386 83.9486 44.8022 85.1761 45.7425 85.7906C47.096 86.6753 48.2392 87 50 87C51.7608 87 52.904 86.6753 54.2575 85.7906C55.1978 85.1761 56.3613 83.9486 56.8565 83.0488L57.1883 82.4458H50H42.8117L43.1435 83.0488Z" fill="#5B5B5B"/>
</svg>
